<svg width="64" height="64" viewBox="0 0 64 64" fill="none" xmlns="http://www.w3.org/2000/svg">
<path d="M52.1945 11.2H34.2055C32.9879 11.2 32 12.309 32 13.6759V51.924C32 53.2909 32.9879 54.4 34.2055 54.4H52.1945C53.4121 54.4 54.4 53.2909 54.4 51.924V13.6759C54.4 12.309 53.4121 11.2 52.1945 11.2ZM40.3282 40.5373L43.2 31.5104H37.4564L46.0718 19.9044L43.7744 28.9313H48.9436L40.3282 40.5373Z" fill="black"/>
<path d="M47.3599 8H40.6399C39.4023 8 38.3999 8.716 38.3999 9.6H49.5999C49.5999 8.716 48.5975 8 47.3599 8Z" fill="black"/>
<path d="M46.4001 6.3999H41.6001V7.9999H46.4001V6.3999Z" fill="black"/>
<path d="M48.7384 57.5999H37.6615C36.3015 57.5999 35.2 56.1679 35.2 54.3999H51.2C51.2 56.1679 50.0984 57.5999 48.7384 57.5999Z" fill="black"/>
<path d="M28.7999 22.4179C28.701 22.4119 28.6079 22.3999 28.509 22.3999C23.3658 22.3999 19.2 26.6959 19.2 31.9999C19.2 37.3039 23.3658 41.5999 28.509 41.5999C28.6079 41.5999 28.701 41.5879 28.7999 41.5819V22.4179Z" fill="black"/>
<path d="M28.8 44.165C28.699 44.165 28.6039 44.1828 28.5029 44.1828C21.936 44.1828 16.6171 38.8639 16.6171 32.2971C16.6171 25.7302 21.936 20.4114 28.5029 20.4114C28.6039 20.4114 28.699 20.4233 28.8 20.4292V11.2L23.8555 20.0608L14.0914 17.2914L16.8608 27.0555L8 31.9999L16.8608 36.9444L14.0914 46.7085L23.8555 43.9391L28.8 52.7999V44.165Z" fill="black"/>
</svg>
