<svg width="64" height="64" viewBox="0 0 64 64" fill="none" xmlns="http://www.w3.org/2000/svg">
<path d="M50.0142 54.9003L50.0142 54.9047C50.0184 55.8458 49.2642 56.5999 48.3278 56.5999H15.1476C14.2104 56.5999 13.4546 55.8441 13.4546 54.9069V9.09289C13.4546 8.15572 14.2104 7.3999 15.1476 7.3999H48.3212C49.2584 7.3999 50.0142 8.15572 50.0142 9.09289L50.0142 54.9003Z" stroke="black" stroke-width="2" stroke-miterlimit="10"/>
<path d="M41.3226 26.3267L41.3226 26.3334C41.3248 26.6612 40.9949 27.11 40.341 27.11H23.5649C22.9109 27.11 22.5767 26.6593 22.5767 26.3326V14.3279C22.5767 14.0012 22.9109 13.5505 23.5649 13.5505H40.3344C40.9883 13.5505 41.3226 14.0012 41.3226 14.3279L41.3226 26.3267Z" stroke="black" stroke-width="2" stroke-miterlimit="10"/>
<path d="M36.2122 20.3303H27.6819C27.173 20.3303 26.7629 20.1049 26.7629 19.8251V18.2422C26.7629 17.9624 27.173 17.7371 27.6819 17.7371H36.2169C36.7259 17.7371 37.1359 17.9624 37.1359 18.2422V19.8251C37.1312 20.1049 36.7212 20.3303 36.2122 20.3303Z" stroke="black" stroke-miterlimit="10"/>
<path d="M17.7524 14.23H16.7268V15.2556H17.7524V14.23Z" fill="black"/>
<path d="M19.5715 14.23H18.5459V15.2556H19.5715V14.23Z" fill="black"/>
<path d="M21.3909 14.23H20.3652V15.2556H21.3909V14.23Z" fill="black"/>
<path d="M23.21 14.23H22.1843V15.2556H23.21V14.23Z" fill="black"/>
<path d="M12.7871 32V55.2328C12.7871 56.3566 13.6981 57.2675 14.8218 57.2675H48.6537C49.7774 57.2675 50.6884 56.3566 50.6884 55.2328V32H12.7871ZM29.4105 52.613L31.4053 45.9636H26.7507L34.065 37.3195L32.0702 43.9688H37.3897L29.4105 52.613Z" fill="black"/>
</svg>
