<svg width="64" height="64" viewBox="0 0 64 64" fill="none" xmlns="http://www.w3.org/2000/svg">
<path d="M49.2828 35.8398H37.4883C36.9962 35.8191 36.5332 35.629 36.1997 35.3108C35.8662 34.9926 35.6891 34.5719 35.7068 34.14V24.7282C35.6892 24.2974 35.8667 23.8779 36.2005 23.5616C36.5343 23.2452 36.9973 23.0576 37.4883 23.0398H49.2828C49.7738 23.0576 50.2368 23.2452 50.5706 23.5616C50.9045 23.8779 51.082 24.2974 51.0644 24.7282V34.14C51.0652 34.6018 50.8652 35.0465 50.5052 35.3835C50.1808 35.6692 49.7424 35.8328 49.2828 35.8398ZM37.4883 24.1806C37.3434 24.2004 37.2127 24.2683 37.1231 24.3702C37.0336 24.4721 36.9921 24.6002 37.0072 24.7282V34.14C37.0072 34.448 37.2282 34.699 37.4883 34.699H49.2828C49.3418 34.6974 49.3997 34.6854 49.4533 34.6639C49.5069 34.6423 49.5551 34.6116 49.5949 34.5735C49.7154 34.4587 49.7807 34.3074 49.777 34.1514V24.7282C49.7921 24.6002 49.7505 24.4721 49.661 24.3702C49.5715 24.2683 49.4408 24.2004 49.2958 24.1806H37.4883Z" fill="black"/>
<path d="M47.3189 30.7198H39.4524C39.2887 30.7203 39.1267 30.691 38.9767 30.6336C38.8266 30.5763 38.6917 30.4923 38.5806 30.3869C38.4694 30.2815 38.3843 30.157 38.3308 30.0212C38.2772 29.8855 38.2563 29.7414 38.2694 29.5982V26.7111C38.258 26.5687 38.2802 26.4258 38.3345 26.2913C38.3889 26.1568 38.4742 26.0335 38.5852 25.9293C38.6962 25.825 38.8305 25.7419 38.9797 25.6853C39.1289 25.6286 39.2898 25.5995 39.4524 25.5999H47.3189C47.4815 25.5995 47.6424 25.6286 47.7916 25.6853C47.9408 25.7419 48.075 25.825 48.186 25.9293C48.297 26.0335 48.3824 26.1568 48.4367 26.2913C48.491 26.4258 48.5132 26.5687 48.5018 26.7111V29.5982C48.5149 29.7414 48.494 29.8855 48.4405 30.0212C48.3869 30.157 48.3019 30.2815 48.1907 30.3869C48.0795 30.4923 47.9446 30.5763 47.7946 30.6336C47.6445 30.691 47.4825 30.7203 47.3189 30.7198ZM39.4524 26.6384V29.5982L47.3071 29.6813V26.7111L39.4524 26.6384Z" fill="black"/>
<path d="M40.1052 32H39.2092V32.96H40.1052V32Z" fill="black"/>
<path d="M42.7803 32H41.8843V32.96H42.7803V32Z" fill="black"/>
<path d="M45.4557 32H44.5725V32.96H45.4557V32Z" fill="black"/>
<path d="M47.6956 32H46.7996V32.96H47.6956V32Z" fill="black"/>
<path d="M54.7101 18.7532H32.1949C31.9594 18.7662 31.7289 18.8257 31.5164 18.928C31.304 19.0304 31.1138 19.1736 30.9568 19.3496C30.7999 19.5256 30.6792 19.7309 30.6017 19.9536C30.5242 20.1763 30.4914 20.4122 30.5053 20.6476V55.6044C30.4808 56.079 30.6444 56.5441 30.9608 56.8988C31.2771 57.2535 31.7206 57.4691 32.1949 57.4988H54.7101C55.1834 57.4691 55.6256 57.2531 55.9399 56.898C56.2542 56.5429 56.4149 56.0777 56.3869 55.6044V20.6476C56.4115 20.175 56.2496 19.7117 55.936 19.3574C55.6224 19.0031 55.1821 18.7861 54.7101 18.7532ZM32.1949 20.0332H54.7101C54.8893 20.0332 55.1069 20.302 55.1069 20.6476V38.1196H31.7853V20.6476C31.7853 20.302 32.0029 20.0332 32.1949 20.0332ZM47.2221 47.182L41.8845 53.7612L43.2285 48.6412H40.1053L45.0077 42.1004L43.7277 47.1308L47.2221 47.182Z" fill="black"/>
<path fill-rule="evenodd" clip-rule="evenodd" d="M28.0256 26.4698L11.9832 25.5999L6.44458 38.5949C6.31213 38.9038 6.25177 39.2403 6.2683 39.5775C6.28483 39.9146 6.3778 40.2431 6.5398 40.5369C6.7018 40.8306 6.92836 41.0815 7.20143 41.2694C7.4745 41.4573 7.78653 41.5772 8.11268 41.6195L22.6434 43.5199L28.0256 26.4698Z" fill="black"/>
<path fill-rule="evenodd" clip-rule="evenodd" d="M50.0525 16.6399L52.2835 8.91827C52.3639 8.61265 52.3663 8.29408 52.2906 7.98745C52.215 7.68082 52.0632 7.39445 51.8471 7.15071C51.6311 6.90698 51.3567 6.71249 51.0454 6.58245C50.7341 6.45241 50.3942 6.39034 50.0525 6.4011H37.6257L33.8882 16.6399H50.0525Z" fill="black"/>
<path fill-rule="evenodd" clip-rule="evenodd" d="M29.5855 19.7198C29.5865 19.135 29.7313 18.5601 30.0064 18.0486C30.2815 17.5371 30.678 17.1058 31.1589 16.7949L34.4255 6.3999L21.0922 6.93544C20.6822 6.95398 20.2859 7.09318 19.9503 7.33656C19.6148 7.57993 19.354 7.91728 19.1989 8.30862L12.6655 23.4548L28.7855 24.3199L29.5855 21.7795V19.7198Z" fill="black"/>
<path fill-rule="evenodd" clip-rule="evenodd" d="M29.3056 32L25.4656 44.243L29.3056 44.8V32Z" fill="black"/>
<path d="M29.3055 47.36L24.8173 46.72V50.284C23.7181 50.9177 22.7543 51.78 21.9853 52.8181C21.2163 53.8561 20.6582 56.3278 20.3455 57.6H29.3055V47.36Z" fill="black"/>
</svg>
