<svg width="105" height="32" viewBox="0 0 105 32" fill="none" xmlns="http://www.w3.org/2000/svg">
<path d="M22.395 1.4873C23.4885 1.49448 26.0809 3.59633 26.8819 4.36086C29.8967 7.23867 31.7293 11.1469 31.8633 15.3769C32.0033 19.792 30.4147 23.8121 27.4711 27.0121C24.2727 30.489 20.076 31.8557 15.5149 32C14.0299 31.9257 12.6868 31.7156 11.25 31.3228C12.2088 30.3824 13.3103 29.5518 14.3334 28.6827C15.3212 27.8433 16.3426 26.811 17.4443 26.1432C18.0085 25.8014 18.7144 25.6474 19.3352 25.4329C20.5819 25.0021 21.74 24.1434 22.6661 23.1969C24.561 21.2596 25.5415 18.6203 25.5381 15.8967C25.5386 15.7188 25.5345 15.5411 25.5257 15.3635C25.517 15.186 25.5036 15.0088 25.4856 14.832C25.4675 14.655 25.4449 14.4788 25.4178 14.3031C25.3905 14.1275 25.3586 13.9527 25.3223 13.7789C25.2859 13.605 25.245 13.4323 25.1995 13.2607C25.154 13.089 25.1041 12.9187 25.0498 12.7498C24.9955 12.5808 24.9368 12.4135 24.8736 12.2478C24.8105 12.0821 24.7431 11.9182 24.6715 11.7561C24.5999 11.5941 24.524 11.4341 24.4439 11.2762C24.3639 11.1183 24.2797 10.9627 24.1916 10.8094C24.1034 10.6561 24.0113 10.5053 23.9152 10.3571C23.8192 10.2088 23.7193 10.0633 23.6156 9.92053C23.5119 9.77764 23.4046 9.63772 23.2936 9.50076C23.1825 9.36381 23.068 9.23001 22.9501 9.09937C22.832 8.96861 22.7106 8.84119 22.5859 8.71713C22.4613 8.59307 22.3335 8.4725 22.2025 8.3554C21.5233 7.74916 20.7043 7.30425 20.0666 6.65313C20.3613 5.64182 21.7415 2.21746 22.395 1.4873Z" fill="black"/>
<path d="M15.6767 0.0309051C17.3443 -0.0986225 19.1703 0.184787 20.7373 0.7724C20.1634 1.12164 19.6371 1.60905 19.1197 2.04061C17.7812 3.15736 16.0306 4.8052 14.6432 5.74339C13.4866 6.52547 12.0505 6.56938 10.6713 7.55767C10.535 7.65413 10.4011 7.75394 10.2696 7.85711C10.1382 7.96028 10.0093 8.06674 9.88296 8.17648C9.75665 8.28623 9.63313 8.39907 9.51238 8.515C9.39151 8.63094 9.27354 8.7499 9.15848 8.8719C9.04341 8.99377 8.93138 9.11854 8.82238 9.24621C8.71338 9.37375 8.60754 9.50406 8.50485 9.63715C8.40217 9.77011 8.30276 9.90558 8.20665 10.0436C8.11053 10.1816 8.01776 10.3219 7.92834 10.4645C7.83904 10.6073 7.75328 10.7521 7.67105 10.8992C7.5887 11.0462 7.51001 11.1952 7.43499 11.3462C7.35984 11.4972 7.28848 11.65 7.2209 11.8046C7.1532 11.9593 7.08929 12.1155 7.02917 12.2734C6.96918 12.4312 6.91297 12.5905 6.86056 12.7513C6.80814 12.912 6.7597 13.0739 6.71524 13.2371C6.67066 13.4002 6.63011 13.5644 6.59361 13.7296C6.55711 13.8948 6.52459 14.0608 6.49604 14.2277C6.47747 14.3345 6.46061 14.4415 6.44546 14.5488C6.4303 14.6561 6.41679 14.7636 6.40491 14.8714C6.39304 14.9793 6.38281 15.0872 6.37422 15.1953C6.36576 15.3033 6.35894 15.4115 6.35376 15.5199C6.34858 15.6282 6.34511 15.7366 6.34334 15.845C6.34157 15.9535 6.34144 16.0619 6.34296 16.1702C6.3446 16.2787 6.34789 16.3871 6.35281 16.4954C6.35774 16.6037 6.36437 16.7119 6.3727 16.82C6.38091 16.9282 6.39089 17.0362 6.40264 17.144C6.41426 17.2517 6.42752 17.3592 6.44243 17.4666C6.45746 17.5739 6.47413 17.681 6.49244 17.788C6.51076 17.8947 6.53071 18.0012 6.55231 18.1073C6.57391 18.2136 6.59715 18.3194 6.62203 18.4248C6.64704 18.5301 6.67356 18.6351 6.7016 18.7397C6.72977 18.8443 6.75958 18.9483 6.79103 19.0519C6.82235 19.1556 6.85532 19.2587 6.88992 19.3612C6.92453 19.4637 6.96072 19.5656 6.99848 19.6668C7.03625 19.7682 7.07553 19.8689 7.11632 19.969C7.15725 20.0692 7.19968 20.1686 7.24364 20.2673C7.28759 20.3659 7.33306 20.4639 7.38005 20.5611C7.42703 20.6583 7.47553 20.7548 7.52555 20.8505C7.57557 20.9462 7.62704 21.041 7.67996 21.135C7.73288 21.2291 7.78725 21.3222 7.84308 21.4144C7.8989 21.5066 7.95619 21.5979 8.01492 21.6883C8.07352 21.7787 8.13352 21.8681 8.1949 21.9564C8.25641 22.0449 8.31925 22.1323 8.38341 22.2187C8.44757 22.3051 8.513 22.3904 8.57969 22.4746C8.6465 22.559 8.71464 22.6421 8.78411 22.7242C8.85345 22.8063 8.92406 22.8872 8.99592 22.9669C9.06779 23.0468 9.14092 23.1254 9.21531 23.2027C9.28958 23.2802 9.36505 23.3564 9.44171 23.4314C9.51851 23.5063 9.59637 23.58 9.67531 23.6525C10.295 24.2297 11.2611 24.604 11.7447 25.3064C11.9571 25.9815 10.3123 29.2762 9.93449 30.0625C9.82631 30.265 9.66281 30.4401 9.51769 30.6161C8.20267 30.1701 6.57429 29.0261 5.52261 28.0937C2.33292 25.266 0.328472 21.4024 0.0296988 17.0767C0.0218679 16.9473 0.0155544 16.8179 0.0107548 16.6884C0.00608158 16.5591 0.00292339 16.4296 0.00128144 16.3C-0.000360519 16.1704 -0.000425013 16.0409 0.00109064 15.9114C0.00247999 15.7818 0.00551208 15.6522 0.0101853 15.5228C0.0147323 15.3934 0.0207936 15.2641 0.0283719 15.1347C0.0360764 15.0054 0.0452988 14.8762 0.0560347 14.7471C0.0668968 14.618 0.07921 14.489 0.0929772 14.3602C0.106871 14.2315 0.12228 14.1029 0.139205 13.9745C0.15613 13.8462 0.174572 13.718 0.194528 13.5901C0.21461 13.4622 0.236143 13.3345 0.25913 13.2071C0.282244 13.0797 0.306812 12.9526 0.33283 12.8258C0.358975 12.6991 0.386572 12.5726 0.415622 12.4465C0.444799 12.3204 0.475428 12.1946 0.507509 12.0693C0.539717 11.9441 0.573378 11.8192 0.60849 11.6946C0.643603 11.5701 0.680231 11.4461 0.718375 11.3226C0.756393 11.1991 0.795925 11.076 0.836974 10.9533C0.878023 10.8308 0.920525 10.7087 0.964479 10.5871C1.00843 10.4657 1.05384 10.3448 1.1007 10.2244C1.14756 10.104 1.19587 9.98418 1.24563 9.86502C1.2954 9.74586 1.34655 9.62735 1.39909 9.50948C1.45163 9.39148 1.50563 9.27425 1.56108 9.1578C1.6164 9.04122 1.67317 8.92535 1.7314 8.81019C1.7895 8.69503 1.84899 8.58064 1.90987 8.46703C1.97074 8.35342 2.03301 8.24057 2.09667 8.12851C2.1602 8.01644 2.22512 7.90515 2.29143 7.79463C2.35762 7.68424 2.42519 7.57462 2.49415 7.46578C2.56299 7.35707 2.63315 7.24919 2.70464 7.14216C2.77613 7.03512 2.84881 6.92899 2.9227 6.82375C2.99672 6.71852 3.07199 6.61426 3.14853 6.51096C3.22507 6.40766 3.30282 6.30533 3.38176 6.20397C3.4607 6.10261 3.54084 6.00221 3.62218 5.90278C3.70352 5.80348 3.78605 5.70515 3.86979 5.60779C4.01391 5.44027 4.16137 5.27578 4.31218 5.11432C4.46286 4.95286 4.6167 4.79463 4.77369 4.63962C4.93069 4.48461 5.09072 4.33289 5.25378 4.18445C5.41683 4.03614 5.5828 3.89124 5.75167 3.74977C5.92054 3.60831 6.09212 3.4704 6.26642 3.33606C6.44072 3.20173 6.61767 3.07107 6.79728 2.9441C6.97676 2.81711 7.15876 2.69391 7.34329 2.57451C7.5277 2.45509 7.71444 2.33956 7.90351 2.22792C8.09259 2.11627 8.28376 2.00859 8.477 1.9049C8.67037 1.8012 8.8657 1.70157 9.06299 1.60599C9.26028 1.51041 9.4594 1.41897 9.66035 1.33167C9.8613 1.24438 10.0639 1.1613 10.2681 1.08243C10.4725 1.00355 10.6782 0.928958 10.8854 0.858636C11.0926 0.788327 11.3012 0.722351 11.511 0.660708C11.7209 0.599052 11.9319 0.541793 12.1441 0.488933C12.3562 0.436059 12.5693 0.387616 12.7833 0.343602C13.7348 0.154146 14.7114 0.0985125 15.6767 0.0309051Z" fill="#FDD000"/>
<path d="M44.0403 7.36074C44.4365 7.32553 44.8427 7.3234 45.2402 7.32457C47.4227 7.33114 49.5247 7.9811 51.4661 8.96629C51.96 9.21699 52.5418 9.50057 52.926 9.90757C53.132 10.1258 53.2631 10.3811 53.246 10.6908C53.2129 11.2963 51.7846 13.7617 51.2727 14.1956C51.2082 14.2501 50.9424 14.4333 50.8719 14.426C50.3538 14.3712 48.9778 13.499 48.417 13.2268C47.4322 12.749 46.267 12.3855 45.1801 12.3004C44.2093 12.2244 43.1919 12.3588 42.429 13.0326C42.0808 13.3402 41.7763 13.7688 41.7515 14.2538C41.724 14.7902 42.0579 15.2013 42.4633 15.4934C43.1582 15.9942 44.0803 16.2834 44.8666 16.607C47.2848 17.6026 50.2873 18.6886 52.0576 20.7248C53.1695 22.0036 53.6085 23.6176 53.499 25.3089C53.3864 27.0477 52.6163 28.5879 51.3361 29.7292C48.9666 31.8412 45.8853 32.1132 42.8915 31.9039C40.5352 31.5549 38.4008 30.7705 36.3295 29.5762C35.8473 29.2982 35.3229 29.0204 34.9099 28.6403C34.681 28.4299 34.4777 28.1664 34.4684 27.8383C34.4506 27.2019 35.9464 24.676 36.4037 24.1655C36.6163 23.9281 36.909 23.6952 37.2424 23.7546C37.9794 23.8858 38.8843 24.6071 39.5462 24.9872C41.1456 25.9057 43.5083 26.5324 45.3411 26.4479C46.0037 26.4173 46.8301 26.1678 47.2821 25.6406C47.5019 25.3843 47.5796 25.0654 47.547 24.7299C47.3577 22.7793 42.9703 21.7243 41.4685 21.0979C40.237 20.5841 38.9818 19.9852 37.94 19.1267C36.622 18.041 35.9898 16.677 35.8145 14.9823C35.6489 13.3804 36.2082 11.7905 37.1977 10.554C38.8812 8.45019 41.4948 7.62188 44.0403 7.36074Z" fill="black"/>
<path fill-rule="evenodd" clip-rule="evenodd" d="M98.1158 7.74972C96.311 7.30829 94.2675 7.19919 92.423 7.36091C91.2417 7.47794 86.9257 7.93871 86.2313 8.81674C86.0159 9.0891 86.0076 9.45199 86.0493 9.78413C86.14 10.5086 86.5485 12.874 87.1066 13.2875C87.3601 13.4752 87.6939 13.434 87.9842 13.3775C88.3919 13.298 88.851 13.1941 89.3442 13.0824C91.9032 12.5029 95.3803 11.7156 97.3547 13.0645C97.4262 13.1138 97.4952 13.1664 97.5618 13.2225C97.6284 13.2788 97.692 13.3381 97.7528 13.4005C97.8136 13.463 97.8714 13.5284 97.9259 13.5966C97.9804 13.665 98.0315 13.7359 98.0794 13.8092C98.1271 13.8826 98.1713 13.9582 98.2118 14.0359C98.2524 14.1138 98.289 14.1935 98.3219 14.2748C98.3548 14.3563 98.3838 14.4393 98.4087 14.5236C98.4337 14.6081 98.4546 14.6935 98.4714 14.7799C98.5153 15.0148 98.5475 15.2316 98.4636 15.4618C98.3039 15.4607 98.143 15.4595 97.9812 15.4582C93.8044 15.4256 88.9514 15.3876 85.7759 18.5895C84.2742 20.1036 83.6937 22.1659 83.6856 24.2759C83.6792 25.9428 84.2254 27.3673 85.2232 28.666C85.3284 28.8028 85.4458 28.9315 85.5633 29.0602C85.7311 29.244 85.8988 29.4278 86.0301 29.6348C86.3168 29.8138 86.5895 30.0107 86.8621 30.2076C87.2408 30.4811 87.6193 30.7545 88.035 30.9796C90.0341 32.0626 92.6808 32.2338 94.8609 31.6965C96.1191 31.3862 97.4011 30.8093 98.4685 30.0607C98.4724 30.067 98.4764 30.0731 98.4802 30.0793C98.4816 30.0817 98.4831 30.0842 98.4844 30.0867C98.5827 30.2631 98.5928 30.4832 98.603 30.7033C98.6206 31.0843 98.6382 31.4652 99.1127 31.6195C99.8883 31.8717 103.543 31.8442 104.244 31.4552C104.407 31.3643 104.477 31.2891 104.525 31.1028C104.722 30.3327 104.668 27.4364 104.632 25.5053C104.621 24.9383 104.612 24.4545 104.611 24.1322C104.609 23.1927 104.618 22.2516 104.626 21.31C104.641 19.5831 104.657 17.8549 104.608 16.1338C104.59 15.4835 104.541 14.8355 104.463 14.1899C104.432 13.9369 104.388 13.6863 104.331 13.438C104.274 13.1896 104.205 12.9451 104.123 12.7043C104.041 12.4634 103.947 12.2276 103.841 11.9969C103.734 11.7662 103.617 11.5418 103.487 11.3237C102.328 9.37404 100.231 8.26679 98.1158 7.74972ZM98.1164 20.6618C97.6096 20.6455 97.1016 20.6291 96.5952 20.6518C96.5284 20.6553 96.4603 20.6589 96.391 20.6625C94.4648 20.7629 91.5979 20.9124 90.2569 22.4237C89.7908 22.9489 89.6006 23.6037 89.6394 24.3061C89.6717 24.8878 89.8893 25.3845 90.3171 25.7733C90.69 26.112 91.0956 26.268 91.5566 26.4393C93.4809 26.7846 95.3542 26.3602 96.9639 25.2054C97.7065 24.6725 98.355 24.0018 98.5117 23.0547C98.5882 22.5922 98.6847 21.0487 98.4382 20.6717C98.331 20.6686 98.2237 20.6652 98.1164 20.6618Z" fill="black"/>
<path fill-rule="evenodd" clip-rule="evenodd" d="M77.171 0.626005C76.3827 0.235856 75.353 -0.0413635 74.4718 0.0359159C74.5667 0.99006 74.5993 9.09374 74.4125 9.48178C73.4527 8.35576 70.2667 7.43711 68.8103 7.33304C65.7771 7.1162 62.86 8.1836 60.5788 10.2153C58.1611 12.3681 56.7628 15.5477 56.5491 18.7899C56.5344 18.9999 56.5249 19.21 56.5204 19.4204C56.516 19.6308 56.5167 19.8412 56.5225 20.0515C56.5283 20.2619 56.5392 20.472 56.5551 20.6818C56.571 20.8916 56.5921 21.1009 56.6182 21.3097C56.6444 21.5185 56.6755 21.7264 56.7116 21.9335C56.7479 22.1408 56.789 22.3469 56.8351 22.552C56.8814 22.7571 56.9325 22.961 56.9886 23.1634C57.0445 23.3659 57.1054 23.5669 57.1712 23.7664C57.237 23.9657 57.3076 24.1634 57.383 24.3593C57.4584 24.5552 57.5385 24.749 57.6233 24.9407C57.708 25.1325 57.7974 25.322 57.8914 25.5093C57.9853 25.6966 58.0838 25.8814 58.1867 26.0637C58.2897 26.246 58.397 26.4256 58.5086 26.6024C58.6203 26.7793 58.7361 26.9533 58.8561 27.1243C58.9762 27.2953 59.1003 27.4631 59.2285 27.6278C59.3567 27.7925 59.4889 27.9539 59.6249 28.112C60.3048 28.9055 61.1485 29.6141 62.0084 30.1948C62.1392 30.283 62.321 30.3718 62.5103 30.4643C62.8251 30.6179 63.1605 30.7817 63.3161 30.9699C66.3421 32.1013 69.3002 32.4814 72.3225 31.0554C72.7419 30.8575 74.2316 30.153 74.4319 29.7955L74.4446 29.8417C74.4851 29.995 74.5003 30.1837 74.5163 30.3811C74.5525 30.8311 74.5925 31.3261 74.9443 31.5485C75.4028 31.8386 79.176 31.8143 79.8049 31.6384C80.0216 31.5777 80.3086 31.4434 80.4187 31.2289C80.5671 30.94 80.5814 30.5111 80.5922 30.1865L80.593 30.1634C80.6256 29.183 80.6156 28.1946 80.6056 27.2087C80.6011 26.7579 80.5965 26.3076 80.596 25.8588L80.5873 17.431L80.589 10.5796C80.5899 10.1987 80.5942 9.81662 80.5984 9.43394C80.6096 8.42242 80.6209 7.40702 80.5714 6.40201C80.5337 5.63502 80.4526 4.87345 80.2071 4.14321C79.7024 2.64237 78.5709 1.31877 77.171 0.626005ZM72.1724 14.2317C70.8807 13.1838 69.25 12.7558 67.6163 12.949C65.848 13.2548 64.3547 14.1561 63.3036 15.6577C62.2454 17.1691 61.884 19.1186 62.1878 20.9391C62.2057 21.0478 62.226 21.1559 62.249 21.2635C62.2722 21.3711 62.2978 21.4781 62.326 21.5844C62.3541 21.6908 62.3848 21.7964 62.418 21.9012C62.4514 22.0059 62.4872 22.1098 62.5255 22.2129C62.5637 22.3159 62.6045 22.4179 62.6477 22.5189C62.6908 22.6197 62.7364 22.7195 62.7844 22.8181C62.8324 22.9168 62.8828 23.0142 62.9354 23.1104C62.9882 23.2065 63.0432 23.3012 63.1005 23.3946C63.1578 23.4879 63.2173 23.5798 63.2789 23.67C63.3407 23.7604 63.4045 23.8492 63.4705 23.9364C63.5364 24.0236 63.6044 24.109 63.6745 24.1927C63.7446 24.2764 63.8167 24.3583 63.8909 24.4384C63.9649 24.5185 64.0408 24.5967 64.1186 24.673C64.1964 24.7492 64.276 24.8235 64.3575 24.8957C64.4388 24.968 64.5219 25.0382 64.6066 25.1063C64.6915 25.1744 64.7779 25.2403 64.8658 25.304C66.0672 26.1728 67.4652 26.52 68.9236 26.4225C70.6389 26.2353 72.0743 25.518 73.165 24.1287C74.3421 22.6293 74.832 20.7181 74.6217 18.8153C74.6099 18.7042 74.5955 18.5936 74.5785 18.4833C74.5614 18.3731 74.5418 18.2633 74.5196 18.1539C74.4972 18.0447 74.4723 17.936 74.4447 17.828C74.4172 17.7199 74.3871 17.6125 74.3546 17.5059C74.3218 17.3994 74.2866 17.2937 74.2488 17.189C74.2111 17.0842 74.1708 16.9804 74.1282 16.8776C74.0855 16.7748 74.0403 16.6732 73.9927 16.5727C73.9451 16.4721 73.8951 16.3729 73.8426 16.275C73.7903 16.177 73.7357 16.0803 73.6786 15.985C73.6216 15.8897 73.5624 15.796 73.5009 15.7038C73.4393 15.6114 73.3756 15.5207 73.3097 15.4316C73.2439 15.3425 73.1759 15.2551 73.1058 15.1693C73.0359 15.0837 72.9638 14.9998 72.8897 14.9176C72.8157 14.8356 72.7397 14.7555 72.6618 14.6772C72.5838 14.5989 72.5041 14.5226 72.4225 14.4484C72.3408 14.3741 72.2574 14.3019 72.1724 14.2317Z" fill="black"/>
</svg>
