<svg width="105" height="33" viewBox="0 0 105 33" fill="none" xmlns="http://www.w3.org/2000/svg">
<path d="M22.395 1.9873C23.4885 1.99448 26.0809 4.09633 26.8819 4.86086C29.8967 7.73867 31.7293 11.6469 31.8633 15.8769C32.0033 20.292 30.4147 24.3121 27.4711 27.5121C24.2727 30.989 20.076 32.3557 15.5149 32.5C14.0299 32.4257 12.6868 32.2156 11.25 31.8228C12.2088 30.8824 13.3103 30.0518 14.3334 29.1827C15.3212 28.3433 16.3426 27.311 17.4443 26.6432C18.0085 26.3014 18.7144 26.1474 19.3352 25.9329C20.5819 25.5021 21.74 24.6434 22.6661 23.6969C24.561 21.7596 25.5415 19.1203 25.5381 16.3967C25.5386 16.2188 25.5345 16.0411 25.5257 15.8635C25.517 15.686 25.5036 15.5088 25.4856 15.332C25.4675 15.155 25.4449 14.9788 25.4178 14.8031C25.3905 14.6275 25.3586 14.4527 25.3223 14.2789C25.2859 14.105 25.245 13.9323 25.1995 13.7607C25.154 13.589 25.1041 13.4187 25.0498 13.2498C24.9955 13.0808 24.9368 12.9135 24.8736 12.7478C24.8105 12.5821 24.7431 12.4182 24.6715 12.2561C24.5999 12.0941 24.524 11.9341 24.4439 11.7762C24.3639 11.6183 24.2797 11.4627 24.1916 11.3094C24.1034 11.1561 24.0113 11.0053 23.9152 10.8571C23.8192 10.7088 23.7193 10.5633 23.6156 10.4205C23.5119 10.2776 23.4046 10.1377 23.2936 10.0008C23.1825 9.86381 23.068 9.73001 22.9501 9.59937C22.832 9.46861 22.7106 9.34119 22.5859 9.21713C22.4613 9.09307 22.3335 8.9725 22.2025 8.8554C21.5233 8.24916 20.7043 7.80425 20.0666 7.15313C20.3613 6.14182 21.7415 2.71746 22.395 1.9873Z" fill="white"/>
<path d="M15.6767 0.530905C17.3443 0.401378 19.1703 0.684787 20.7373 1.2724C20.1634 1.62164 19.6371 2.10905 19.1197 2.54061C17.7812 3.65736 16.0306 5.3052 14.6432 6.24339C13.4866 7.02547 12.0505 7.06938 10.6713 8.05767C10.535 8.15413 10.4011 8.25394 10.2696 8.35711C10.1382 8.46028 10.0093 8.56674 9.88296 8.67648C9.75665 8.78623 9.63313 8.89907 9.51238 9.015C9.39151 9.13094 9.27354 9.2499 9.15848 9.3719C9.04341 9.49377 8.93138 9.61854 8.82238 9.74621C8.71338 9.87375 8.60754 10.0041 8.50485 10.1371C8.40217 10.2701 8.30276 10.4056 8.20665 10.5436C8.11053 10.6816 8.01776 10.8219 7.92834 10.9645C7.83904 11.1073 7.75328 11.2521 7.67105 11.3992C7.5887 11.5462 7.51001 11.6952 7.43499 11.8462C7.35984 11.9972 7.28848 12.15 7.2209 12.3046C7.1532 12.4593 7.08929 12.6155 7.02917 12.7734C6.96918 12.9312 6.91297 13.0905 6.86056 13.2513C6.80814 13.412 6.7597 13.5739 6.71524 13.7371C6.67066 13.9002 6.63011 14.0644 6.59361 14.2296C6.55711 14.3948 6.52459 14.5608 6.49604 14.7277C6.47747 14.8345 6.46061 14.9415 6.44546 15.0488C6.4303 15.1561 6.41679 15.2636 6.40491 15.3714C6.39304 15.4793 6.38281 15.5872 6.37422 15.6953C6.36576 15.8033 6.35894 15.9115 6.35376 16.0199C6.34858 16.1282 6.34511 16.2366 6.34334 16.345C6.34157 16.4535 6.34144 16.5619 6.34296 16.6702C6.3446 16.7787 6.34789 16.8871 6.35281 16.9954C6.35774 17.1037 6.36437 17.2119 6.3727 17.32C6.38091 17.4282 6.39089 17.5362 6.40264 17.644C6.41426 17.7517 6.42752 17.8592 6.44243 17.9666C6.45746 18.0739 6.47413 18.181 6.49244 18.288C6.51076 18.3947 6.53071 18.5012 6.55231 18.6073C6.57391 18.7136 6.59715 18.8194 6.62203 18.9248C6.64704 19.0301 6.67356 19.1351 6.7016 19.2397C6.72977 19.3443 6.75958 19.4483 6.79103 19.5519C6.82235 19.6556 6.85532 19.7587 6.88992 19.8612C6.92453 19.9637 6.96072 20.0656 6.99848 20.1668C7.03625 20.2682 7.07553 20.3689 7.11632 20.469C7.15725 20.5692 7.19968 20.6686 7.24364 20.7673C7.28759 20.8659 7.33306 20.9639 7.38005 21.0611C7.42703 21.1583 7.47553 21.2548 7.52555 21.3505C7.57557 21.4462 7.62704 21.541 7.67996 21.635C7.73288 21.7291 7.78725 21.8222 7.84308 21.9144C7.8989 22.0066 7.95619 22.0979 8.01492 22.1883C8.07352 22.2787 8.13352 22.3681 8.1949 22.4564C8.25641 22.5449 8.31925 22.6323 8.38341 22.7187C8.44757 22.8051 8.513 22.8904 8.57969 22.9746C8.6465 23.059 8.71464 23.1421 8.78411 23.2242C8.85345 23.3063 8.92406 23.3872 8.99592 23.4669C9.06779 23.5468 9.14092 23.6254 9.21531 23.7027C9.28958 23.7802 9.36505 23.8564 9.44171 23.9314C9.51851 24.0063 9.59637 24.08 9.67531 24.1525C10.295 24.7297 11.2611 25.104 11.7447 25.8064C11.9571 26.4815 10.3123 29.7762 9.93449 30.5625C9.82631 30.765 9.66281 30.9401 9.51769 31.1161C8.20267 30.6701 6.57429 29.5261 5.52261 28.5937C2.33292 25.766 0.328472 21.9024 0.0296988 17.5767C0.0218679 17.4473 0.0155544 17.3179 0.0107548 17.1884C0.00608158 17.0591 0.00292339 16.9296 0.00128144 16.8C-0.000360519 16.6704 -0.000425013 16.5409 0.00109064 16.4114C0.00247999 16.2818 0.00551208 16.1522 0.0101853 16.0228C0.0147323 15.8934 0.0207936 15.7641 0.0283719 15.6347C0.0360764 15.5054 0.0452988 15.3762 0.0560347 15.2471C0.0668968 15.118 0.07921 14.989 0.0929772 14.8602C0.106871 14.7315 0.12228 14.6029 0.139205 14.4745C0.15613 14.3462 0.174572 14.218 0.194528 14.0901C0.21461 13.9622 0.236143 13.8345 0.25913 13.7071C0.282244 13.5797 0.306812 13.4526 0.33283 13.3258C0.358975 13.1991 0.386572 13.0726 0.415622 12.9465C0.444799 12.8204 0.475428 12.6946 0.507509 12.5693C0.539717 12.4441 0.573378 12.3192 0.60849 12.1946C0.643603 12.0701 0.680231 11.9461 0.718375 11.8226C0.756393 11.6991 0.795925 11.576 0.836974 11.4533C0.878023 11.3308 0.920525 11.2087 0.964479 11.0871C1.00843 10.9657 1.05384 10.8448 1.1007 10.7244C1.14756 10.604 1.19587 10.4842 1.24563 10.365C1.2954 10.2459 1.34655 10.1273 1.39909 10.0095C1.45163 9.89148 1.50563 9.77425 1.56108 9.6578C1.6164 9.54122 1.67317 9.42535 1.7314 9.31019C1.7895 9.19503 1.84899 9.08064 1.90987 8.96703C1.97074 8.85342 2.03301 8.74057 2.09667 8.62851C2.1602 8.51644 2.22512 8.40515 2.29143 8.29463C2.35762 8.18424 2.42519 8.07462 2.49415 7.96578C2.56299 7.85707 2.63315 7.74919 2.70464 7.64216C2.77613 7.53512 2.84881 7.42899 2.9227 7.32375C2.99672 7.21852 3.07199 7.11426 3.14853 7.01096C3.22507 6.90766 3.30282 6.80533 3.38176 6.70397C3.4607 6.60261 3.54084 6.50221 3.62218 6.40278C3.70352 6.30348 3.78605 6.20515 3.86979 6.10779C4.01391 5.94027 4.16137 5.77578 4.31218 5.61432C4.46286 5.45286 4.6167 5.29463 4.77369 5.13962C4.93069 4.98461 5.09072 4.83289 5.25378 4.68445C5.41683 4.53614 5.5828 4.39124 5.75167 4.24977C5.92054 4.10831 6.09212 3.9704 6.26642 3.83606C6.44072 3.70173 6.61767 3.57107 6.79728 3.4441C6.97676 3.31711 7.15876 3.19391 7.34329 3.07451C7.5277 2.95509 7.71444 2.83956 7.90351 2.72792C8.09259 2.61627 8.28376 2.50859 8.477 2.4049C8.67037 2.3012 8.8657 2.20157 9.06299 2.10599C9.26028 2.01041 9.4594 1.91897 9.66035 1.83167C9.8613 1.74438 10.0639 1.6613 10.2681 1.58243C10.4725 1.50355 10.6782 1.42896 10.8854 1.35864C11.0926 1.28833 11.3012 1.22235 11.511 1.16071C11.7209 1.09905 11.9319 1.04179 12.1441 0.988933C12.3562 0.936059 12.5693 0.887616 12.7833 0.843602C13.7348 0.654146 14.7114 0.598513 15.6767 0.530905Z" fill="#FDD000"/>
<path d="M44.0406 7.86074C44.4367 7.82553 44.8429 7.8234 45.2404 7.82457C47.4229 7.83114 49.525 8.4811 51.4663 9.46629C51.9602 9.71699 52.5421 10.0006 52.9263 10.4076C53.1322 10.6258 53.2633 10.8811 53.2463 11.1908C53.2131 11.7963 51.7848 14.2617 51.2729 14.6956C51.2085 14.7501 50.9427 14.9333 50.8722 14.926C50.354 14.8712 48.978 13.999 48.4172 13.7268C47.4324 13.249 46.2673 12.8855 45.1803 12.8004C44.2096 12.7244 43.1922 12.8588 42.4293 13.5326C42.081 13.8402 41.7766 14.2688 41.7518 14.7538C41.7243 15.2902 42.0581 15.7013 42.4635 15.9934C43.1585 16.4942 44.0806 16.7834 44.8668 17.107C47.285 18.1026 50.2875 19.1886 52.0578 21.2248C53.1697 22.5036 53.6087 24.1176 53.4992 25.8089C53.3867 27.5477 52.6165 29.0879 51.3364 30.2292C48.9668 32.3412 45.8855 32.6132 42.8917 32.4039C40.5354 32.0549 38.401 31.2705 36.3297 30.0762C35.8475 29.7982 35.3231 29.5204 34.9101 29.1403C34.6812 28.9299 34.4779 28.6664 34.4687 28.3383C34.4509 27.7019 35.9466 25.176 36.404 24.6655C36.6165 24.4281 36.9092 24.1952 37.2427 24.2546C37.9797 24.3858 38.8845 25.1071 39.5465 25.4872C41.1459 26.4057 43.5086 27.0324 45.3414 26.9479C46.0039 26.9173 46.8303 26.6678 47.2824 26.1406C47.5021 25.8843 47.5798 25.5654 47.5472 25.2299C47.358 23.2793 42.9705 22.2243 41.4687 21.5979C40.2372 21.0841 38.9821 20.4852 37.9403 19.6267C36.6222 18.541 35.99 17.177 35.8148 15.4823C35.6492 13.8804 36.2084 12.2905 37.198 11.054C38.8815 8.95019 41.495 8.12188 44.0406 7.86074Z" fill="white"/>
<path fill-rule="evenodd" clip-rule="evenodd" d="M98.1155 8.24972C96.3108 7.80829 94.2673 7.69919 92.4227 7.86091C91.2415 7.97794 86.9254 8.43871 86.2311 9.31674C86.0157 9.5891 86.0073 9.95199 86.049 10.2841C86.1398 11.0086 86.5482 13.374 87.1064 13.7875C87.3599 13.9752 87.6937 13.934 87.9839 13.8775C88.3916 13.798 88.8507 13.6941 89.3439 13.5824C91.903 13.0029 95.38 12.2156 97.3545 13.5645C97.426 13.6138 97.495 13.6664 97.5615 13.7225C97.6281 13.7788 97.6918 13.8381 97.7525 13.9005C97.8134 13.963 97.8711 14.0284 97.9257 14.0966C97.9801 14.165 98.0313 14.2359 98.0791 14.3092C98.1269 14.3826 98.171 14.4582 98.2116 14.5359C98.2521 14.6138 98.2888 14.6935 98.3216 14.7748C98.3546 14.8563 98.3835 14.9393 98.4084 15.0236C98.4334 15.1081 98.4543 15.1935 98.4711 15.2799C98.5151 15.5148 98.5473 15.7316 98.4634 15.9618C98.3037 15.9607 98.1428 15.9595 97.9809 15.9582C93.8041 15.9256 88.9512 15.8876 85.7756 19.0895C84.274 20.6036 83.6935 22.6659 83.6854 24.7759C83.6789 26.4428 84.2251 27.8673 85.223 29.166C85.3281 29.3028 85.4456 29.4315 85.563 29.5602C85.7309 29.744 85.8986 29.9278 86.0299 30.1348C86.3165 30.3138 86.5892 30.5107 86.8618 30.7076C87.2405 30.9811 87.6191 31.2545 88.0347 31.4796C90.0339 32.5626 92.6806 32.7338 94.8606 32.1965C96.1188 31.8862 97.4009 31.3093 98.4683 30.5607C98.4721 30.567 98.4761 30.5731 98.4799 30.5793C98.4814 30.5817 98.4828 30.5842 98.4842 30.5867C98.5824 30.7631 98.5926 30.9832 98.6028 31.2033C98.6204 31.5843 98.638 31.9652 99.1124 32.1195C99.8881 32.3717 103.542 32.3442 104.243 31.9552C104.407 31.8643 104.477 31.7891 104.524 31.6028C104.722 30.8327 104.668 27.9364 104.631 26.0053C104.621 25.4383 104.612 24.9545 104.611 24.6322C104.609 23.6927 104.617 22.7516 104.626 21.81C104.641 20.0831 104.656 18.3549 104.608 16.6338C104.589 15.9835 104.541 15.3355 104.462 14.6899C104.431 14.4369 104.387 14.1863 104.331 13.938C104.274 13.6896 104.205 13.4451 104.123 13.2043C104.041 12.9634 103.947 12.7276 103.84 12.4969C103.734 12.2662 103.616 12.0418 103.487 11.8237C102.327 9.87404 100.231 8.76679 98.1155 8.24972ZM98.1162 21.1618C97.6093 21.1455 97.1014 21.1291 96.5949 21.1518C96.5282 21.1553 96.4601 21.1589 96.3908 21.1625C94.4646 21.2629 91.5977 21.4124 90.2566 22.9237C89.7906 23.4489 89.6004 24.1037 89.6392 24.8061C89.6714 25.3878 89.8891 25.8845 90.3169 26.2733C90.6897 26.612 91.0954 26.768 91.5563 26.9393C93.4806 27.2846 95.354 26.8602 96.9636 25.7054C97.7063 25.1725 98.3548 24.5018 98.5115 23.5547C98.588 23.0922 98.6844 21.5487 98.438 21.1717C98.3308 21.1686 98.2235 21.1652 98.1162 21.1618Z" fill="white"/>
<path fill-rule="evenodd" clip-rule="evenodd" d="M77.171 1.12601C76.3827 0.735856 75.353 0.458636 74.4718 0.535916C74.5667 1.49006 74.5993 9.59374 74.4125 9.98178C73.4527 8.85576 70.2667 7.93711 68.8103 7.83304C65.7771 7.6162 62.86 8.6836 60.5788 10.7153C58.1611 12.8681 56.7628 16.0477 56.5491 19.2899C56.5344 19.4999 56.5249 19.71 56.5204 19.9204C56.516 20.1308 56.5167 20.3412 56.5225 20.5515C56.5283 20.7619 56.5392 20.972 56.5551 21.1818C56.571 21.3916 56.5921 21.6009 56.6182 21.8097C56.6444 22.0185 56.6755 22.2264 56.7116 22.4335C56.7479 22.6408 56.789 22.8469 56.8351 23.052C56.8814 23.2571 56.9325 23.461 56.9886 23.6634C57.0445 23.8659 57.1054 24.0669 57.1712 24.2664C57.237 24.4657 57.3076 24.6634 57.383 24.8593C57.4584 25.0552 57.5385 25.249 57.6233 25.4407C57.708 25.6325 57.7974 25.822 57.8914 26.0093C57.9853 26.1966 58.0838 26.3814 58.1867 26.5637C58.2897 26.746 58.397 26.9256 58.5086 27.1024C58.6203 27.2793 58.7361 27.4533 58.8561 27.6243C58.9762 27.7953 59.1003 27.9631 59.2285 28.1278C59.3567 28.2925 59.4889 28.4539 59.6249 28.612C60.3048 29.4055 61.1485 30.1141 62.0084 30.6948C62.1392 30.783 62.321 30.8718 62.5103 30.9643C62.8251 31.1179 63.1605 31.2817 63.3161 31.4699C66.3421 32.6013 69.3002 32.9814 72.3225 31.5554C72.7419 31.3575 74.2316 30.653 74.4319 30.2955L74.4446 30.3417C74.4851 30.495 74.5003 30.6837 74.5163 30.8811C74.5525 31.3311 74.5925 31.8261 74.9443 32.0485C75.4028 32.3386 79.176 32.3143 79.8049 32.1384C80.0216 32.0777 80.3086 31.9434 80.4187 31.7289C80.5671 31.44 80.5814 31.0111 80.5922 30.6865L80.593 30.6634C80.6256 29.683 80.6156 28.6946 80.6056 27.7087C80.6011 27.2579 80.5965 26.8076 80.596 26.3588L80.5873 17.931L80.589 11.0796C80.5899 10.6987 80.5942 10.3166 80.5984 9.93394C80.6096 8.92242 80.6209 7.90702 80.5714 6.90201C80.5337 6.13502 80.4526 5.37345 80.2071 4.64321C79.7024 3.14237 78.5709 1.81877 77.171 1.12601ZM72.1724 14.7317C70.8807 13.6838 69.25 13.2558 67.6163 13.449C65.848 13.7548 64.3547 14.6561 63.3036 16.1577C62.2454 17.6691 61.884 19.6186 62.1878 21.4391C62.2057 21.5478 62.226 21.6559 62.249 21.7635C62.2722 21.8711 62.2978 21.9781 62.326 22.0844C62.3541 22.1908 62.3848 22.2964 62.418 22.4012C62.4514 22.5059 62.4872 22.6098 62.5255 22.7129C62.5637 22.8159 62.6045 22.9179 62.6477 23.0189C62.6908 23.1197 62.7364 23.2195 62.7844 23.3181C62.8324 23.4168 62.8828 23.5142 62.9354 23.6104C62.9882 23.7065 63.0432 23.8012 63.1005 23.8946C63.1578 23.9879 63.2173 24.0798 63.2789 24.17C63.3407 24.2604 63.4045 24.3492 63.4705 24.4364C63.5364 24.5236 63.6044 24.609 63.6745 24.6927C63.7446 24.7764 63.8167 24.8583 63.8909 24.9384C63.9649 25.0185 64.0408 25.0967 64.1186 25.173C64.1964 25.2492 64.276 25.3235 64.3575 25.3957C64.4388 25.468 64.5219 25.5382 64.6066 25.6063C64.6915 25.6744 64.7779 25.7403 64.8658 25.804C66.0672 26.6728 67.4652 27.02 68.9236 26.9225C70.6389 26.7353 72.0743 26.018 73.165 24.6287C74.3421 23.1293 74.832 21.2181 74.6217 19.3153C74.6099 19.2042 74.5955 19.0936 74.5785 18.9833C74.5614 18.8731 74.5418 18.7633 74.5196 18.6539C74.4972 18.5447 74.4723 18.436 74.4447 18.328C74.4172 18.2199 74.3871 18.1125 74.3546 18.0059C74.3218 17.8994 74.2866 17.7937 74.2488 17.689C74.2111 17.5842 74.1708 17.4804 74.1282 17.3776C74.0855 17.2748 74.0403 17.1732 73.9927 17.0727C73.9451 16.9721 73.8951 16.8729 73.8426 16.775C73.7903 16.677 73.7357 16.5803 73.6786 16.485C73.6216 16.3897 73.5624 16.296 73.5009 16.2038C73.4393 16.1114 73.3756 16.0207 73.3097 15.9316C73.2439 15.8425 73.1759 15.7551 73.1058 15.6693C73.0359 15.5837 72.9638 15.4998 72.8897 15.4176C72.8157 15.3356 72.7397 15.2555 72.6618 15.1772C72.5838 15.0989 72.5041 15.0226 72.4225 14.9484C72.3408 14.8741 72.2574 14.8019 72.1724 14.7317Z" fill="white"/>
</svg>
