<svg width="64" height="64" viewBox="0 0 64 64" fill="none" xmlns="http://www.w3.org/2000/svg">
<path fill-rule="evenodd" clip-rule="evenodd" d="M10.9582 21.1967L6.40137 34.8415H31.8478V21.1967H10.9582ZM11.7262 18.9183H31.8478V6.3999H15.899L11.7262 18.9183Z" fill="black"/>
<path fill-rule="evenodd" clip-rule="evenodd" d="M38.2474 54.1823H35.3034V46.0799C32.6399 46.0799 33.2799 40.9599 33.2799 37.1199H30.529H6.40098C6.38398 37.9577 6.56835 38.7873 6.93858 39.5391C7.04113 39.8061 7.21447 40.0401 7.43998 40.216C7.66549 40.3919 7.93466 40.503 8.21858 40.5375H30.3498V54.1823H27.4058C27.1027 54.211 26.8122 54.3182 26.5631 54.4933C26.314 54.6683 26.1147 54.9052 25.985 55.1807C25.5793 55.9212 25.3762 56.7557 25.3962 57.5999H40.257C40.2808 56.7569 40.0822 55.9225 39.681 55.1807C39.5512 54.9027 39.3502 54.6639 39.0985 54.4886C38.8467 54.3133 38.5531 54.2076 38.2474 54.1823Z" fill="black"/>
<path d="M48.6667 6.3999H33.6523V18.9183H52.5963L48.6667 6.3999Z" fill="black"/>
<path d="M51.2011 24.96L54.7595 25.9456L53.2619 21.1968H33.6523V25.6L47.7323 24.96C48.7442 23.4157 51.2011 24.96 51.2011 24.96Z" fill="black"/>
<rect x="31.72" y="24.0398" width="24.88" height="23.6" rx="4" stroke="black" stroke-width="2"/>
<path d="M51.6345 28.1599C51.4237 31.564 45.6067 33.7671 44.9263 37.4527C44.246 41.1384 46.5363 42.2399 46.5363 42.2399C46.2662 40.7894 46.3215 39.3076 46.6992 37.8751C47.2742 35.1171 50.2354 33.2039 51.117 32.0775C51.4907 32.9223 47.945 35.788 47.6575 38.0987C47.455 39.4834 47.5591 40.8888 47.9642 42.2399C47.9642 42.2399 50.657 41.7016 51.8741 38.0159C53.0911 34.3303 52.1903 29.0296 51.6345 28.1599Z" fill="black"/>
<path d="M44.1878 39.5424V39.1751C44.0818 38.5202 44.0367 37.8532 44.0534 37.1864V36.8997C43.571 36.1515 42.9485 35.55 42.2364 35.1438C41.5243 34.7376 40.7425 34.5382 39.9542 34.5617C38.5428 34.594 37.1482 34.9371 35.8401 35.5739C35.8401 35.5739 38.7222 43.5198 41.7612 43.5198C44.1057 43.5198 44.8001 41.8805 44.8001 41.8805C43.1705 39.4781 40.9488 37.7565 38.4534 36.9625C41.0668 35.7621 44.1878 39.5424 44.1878 39.5424Z" fill="black"/>
</svg>
