<svg width="64" height="64" viewBox="0 0 64 64" fill="none" xmlns="http://www.w3.org/2000/svg">
<path d="M9.21582 45.248H60.7998C60.7998 45.5884 60.7524 45.9255 60.6601 46.24C60.5679 46.5544 60.4328 46.8402 60.2624 47.0809C60.092 47.3216 59.8897 47.5125 59.6671 47.6427C59.4444 47.773 59.2058 47.84 58.9648 47.84H11.0508C10.5642 47.84 10.0974 47.567 9.75328 47.0809C9.40915 46.5948 9.21582 45.9355 9.21582 45.248Z" fill="black"/>
<path d="M38.336 46.9758H33.344V60.7998H38.336V46.9758Z" fill="black"/>
<path d="M30.3825 58.208H41.2972C41.8357 58.208 42.3522 58.4811 42.733 58.9672C43.1139 59.4533 43.3278 60.1126 43.3278 60.8H28.3518C28.3518 60.1126 28.5657 59.4533 28.9466 58.9672C29.3274 58.4811 29.8439 58.208 30.3825 58.208Z" fill="black"/>
<path fill-rule="evenodd" clip-rule="evenodd" d="M13.8097 33.1519L9.21582 43.5199H34.8515V33.1519L13.8097 33.1519ZM14.5754 31.4239L34.8515 31.4239V21.9199H18.7865L14.5754 31.4239Z" fill="black"/>
<path fill-rule="evenodd" clip-rule="evenodd" d="M56.4761 33.152L60.7999 43.5199H36.6719V33.1519L56.4761 33.152ZM55.7555 31.4239L51.7921 21.9199H36.6719V31.4239H55.7555Z" fill="black"/>
<path d="M19.1338 3.19995C19.1338 3.19995 17.2593 9.27604 17.2593 9.84567C17.2593 10.4153 17.6342 11.1748 19.1338 11.1748C20.6335 11.1748 20.8209 10.2254 20.8209 9.65579C20.8209 9.08616 19.1338 3.19995 19.1338 3.19995Z" fill="black"/>
<path d="M30.306 7.96582C30.306 7.96582 24.7404 10.9203 24.3411 11.3229C23.9418 11.7254 23.6794 12.5305 24.7404 13.6014C25.8014 14.6723 26.5962 14.1387 26.9899 13.7362C27.3835 13.3337 30.306 7.96582 30.306 7.96582Z" fill="black"/>
<path d="M7.90503 30.6563C7.90503 30.6563 10.8218 25.0189 11.2192 24.6144C11.6166 24.21 12.4115 23.9442 13.4687 25.0189C14.526 26.0936 13.9992 26.8987 13.6018 27.2974C13.2044 27.6962 7.90503 30.6563 7.90503 30.6563Z" fill="black"/>
<path d="M3.19995 19.3395C3.19995 19.3395 9.19853 17.4407 9.76089 17.4407C10.3233 17.4407 11.0731 17.8204 11.0731 19.3395C11.0731 20.8585 10.1358 21.0484 9.57344 21.0484C9.01107 21.0484 3.19995 19.3395 3.19995 19.3395Z" fill="black"/>
<path d="M7.77393 7.96582C7.77393 7.96582 13.3395 10.9203 13.7388 11.3229C14.138 11.7254 14.4005 12.5305 13.3395 13.6014C12.2785 14.6723 11.4837 14.1387 11.09 13.7362C10.6964 13.3337 7.77393 7.96582 7.77393 7.96582Z" fill="black"/>
<path d="M19.1337 12.314C17.6374 12.314 16.1813 12.8043 14.9826 13.7114C13.784 14.6186 12.9071 15.8941 12.4829 17.3475C12.0586 18.8009 12.1098 20.3543 12.6287 21.7759C13.1476 23.1974 14.1064 24.4109 15.3621 25.2351L17.4708 20.484H25.7554C25.7554 20.3264 26.0696 19.4989 26.0696 19.3394C26.0696 17.4762 25.3388 15.6892 24.0381 14.3717C22.7374 13.0541 20.9732 12.314 19.1337 12.314Z" fill="black"/>
<path fill-rule="evenodd" clip-rule="evenodd" d="M28.319 17.4407C28.8814 17.4407 34.88 19.3395 34.88 19.3395C34.88 19.3395 29.0688 21.0484 28.5065 21.0484C27.9441 21.0484 27.0068 20.8585 27.0068 19.3395C27.0068 17.8204 27.7567 17.4407 28.319 17.4407Z" fill="black"/>
</svg>
